<?xml version="1.0" encoding="UTF-8" standalone="no"?>
<!DOCTYPE svg PUBLIC "-//W3C//DTD SVG 1.1//EN" "http://www.w3.org/Graphics/SVG/1.1/DTD/svg11.dtd">
<svg width="100%" height="100%" viewBox="0 0 3300 2200" version="1.1" xmlns="http://www.w3.org/2000/svg" xmlns:xlink="http://www.w3.org/1999/xlink" xml:space="preserve" xmlns:serif="http://www.serif.com/" style="fill-rule:evenodd;clip-rule:evenodd;">
    <g id="Notes">
        <rect id="artboard" x="0" y="0" width="3300" height="2200" style="fill:white;"/>
        <path d="M263,292L3036,292" style="fill:none;fill-rule:nonzero;stroke:black;stroke-width:0.5px;"/>
        <g transform="matrix(1,0,0,1,263,322)">
            <text x="0px" y="0px" style="font-family:'SFProDisplay-Bold', 'SF Pro Display';font-weight:700;font-size:16px;">W<tspan x="14.508px " y="0px ">e</tspan>ight/Scale V<tspan x="111.125px " y="0px ">a</tspan>riations</text>
        </g>
        <g transform="matrix(1,0,0,1,559.711,322)">
            <text x="-30.398px" y="0px" style="font-family:'SFProDisplay-Regular', 'SF Pro Display';font-size:16px;">Ultr<tspan x="-6.398px " y="0px ">a</tspan>light</text>
        </g>
        <g transform="matrix(1,0,0,1,856.422,322)">
            <text x="-14.809px" y="0px" style="font-family:'SFProDisplay-Regular', 'SF Pro Display';font-size:16px;">Thin</text>
        </g>
        <g transform="matrix(1,0,0,1,1153.13,322)">
            <text x="-16.945px" y="0px" style="font-family:'SFProDisplay-Regular', 'SF Pro Display';font-size:16px;">Light</text>
        </g>
        <g transform="matrix(1,0,0,1,1449.84,322)">
            <text x="-25.613px" y="0px" style="font-family:'SFProDisplay-Regular', 'SF Pro Display';font-size:16px;">Regular</text>
        </g>
        <g transform="matrix(1,0,0,1,1746.56,322)">
            <text x="-27.449px" y="0px" style="font-family:'SFProDisplay-Regular', 'SF Pro Display';font-size:16px;">Medium</text>
        </g>
        <g transform="matrix(1,0,0,1,2043.27,322)">
            <text x="-31.645px" y="0px" style="font-family:'SFProDisplay-Regular', 'SF Pro Display';font-size:16px;">Semibold</text>
        </g>
        <g transform="matrix(1,0,0,1,2339.98,322)">
            <text x="-15.145px" y="0px" style="font-family:'SFProDisplay-Regular', 'SF Pro Display';font-size:16px;">Bold</text>
        </g>
        <g transform="matrix(1,0,0,1,2636.69,322)">
            <text x="-21.461px" y="0px" style="font-family:'SFProDisplay-Regular', 'SF Pro Display';font-size:16px;">Heavy</text>
        </g>
        <g transform="matrix(1,0,0,1,2933.4,322)">
            <text x="-18.375px" y="0px" style="font-family:'SFProDisplay-Regular', 'SF Pro Display';font-size:16px;">Black</text>
        </g>
        <path d="M263,1903L3036,1903" style="fill:none;fill-rule:nonzero;stroke:black;stroke-width:0.5px;"/>
        <g transform="matrix(1,0,0,1,263,1933)">
            <path d="M9.248,0.83C13.555,0.83 17.139,-2.744 17.139,-7.051C17.139,-11.357 13.545,-14.932 9.238,-14.932C4.941,-14.932 1.367,-11.357 1.367,-7.051C1.367,-2.744 4.951,0.83 9.248,0.83ZM9.248,-0.654C5.703,-0.654 2.871,-3.496 2.871,-7.051C2.871,-10.605 5.693,-13.447 9.238,-13.447C12.793,-13.447 15.635,-10.605 15.645,-7.051C15.654,-3.496 12.803,-0.654 9.248,-0.654ZM9.229,-3.428C9.697,-3.428 9.971,-3.74 9.971,-4.258L9.971,-6.318L12.197,-6.318C12.695,-6.318 13.037,-6.572 13.037,-7.041C13.037,-7.52 12.715,-7.783 12.197,-7.783L9.971,-7.783L9.971,-10.01C9.971,-10.527 9.697,-10.85 9.229,-10.85C8.76,-10.85 8.506,-10.508 8.506,-10.01L8.506,-7.783L6.299,-7.783C5.781,-7.783 5.449,-7.52 5.449,-7.041C5.449,-6.572 5.801,-6.318 6.299,-6.318L8.506,-6.318L8.506,-4.258C8.506,-3.76 8.76,-3.428 9.229,-3.428Z" style="fill-rule:nonzero;"/>
        </g>
        <g transform="matrix(1,0,0,1,281.506,1933)">
            <path d="M11.709,2.91C17.158,2.91 21.67,-1.602 21.67,-7.051C21.67,-12.49 17.148,-17.012 11.699,-17.012C6.26,-17.012 1.748,-12.49 1.748,-7.051C1.748,-1.602 6.27,2.91 11.709,2.91ZM11.709,1.25C7.1,1.25 3.418,-2.441 3.418,-7.051C3.418,-11.65 7.09,-15.352 11.699,-15.352C16.309,-15.352 20,-11.65 20.01,-7.051C20.02,-2.441 16.318,1.25 11.709,1.25ZM11.69,-2.412C12.207,-2.412 12.52,-2.773 12.52,-3.34L12.52,-6.23L15.576,-6.23C16.123,-6.23 16.504,-6.514 16.504,-7.031C16.504,-7.559 16.143,-7.861 15.576,-7.861L12.52,-7.861L12.52,-10.928C12.52,-11.504 12.207,-11.855 11.69,-11.855C11.172,-11.855 10.879,-11.484 10.879,-10.928L10.879,-7.861L7.832,-7.861C7.266,-7.861 6.895,-7.559 6.895,-7.031C6.895,-6.514 7.285,-6.23 7.832,-6.23L10.879,-6.23L10.879,-3.34C10.879,-2.793 11.172,-2.412 11.69,-2.412Z" style="fill-rule:nonzero;"/>
        </g>
        <g transform="matrix(1,0,0,1,304.924,1933)">
            <path d="M14.971,5.674C21.934,5.674 27.695,-0.078 27.695,-7.041C27.695,-14.004 21.924,-19.756 14.961,-19.756C8.008,-19.756 2.256,-14.004 2.256,-7.041C2.256,-0.078 8.018,5.674 14.971,5.674ZM14.971,3.857C8.936,3.857 4.082,-1.006 4.082,-7.041C4.082,-13.076 8.926,-17.94 14.961,-17.94C21.006,-17.94 25.859,-13.076 25.869,-7.041C25.879,-1.006 21.016,3.857 14.971,3.857ZM14.951,-1.064C15.518,-1.064 15.869,-1.455 15.869,-2.061L15.869,-6.133L20.107,-6.133C20.693,-6.133 21.113,-6.465 21.113,-7.021C21.113,-7.598 20.723,-7.939 20.107,-7.939L15.869,-7.939L15.869,-12.188C15.869,-12.803 15.518,-13.193 14.951,-13.193C14.385,-13.193 14.063,-12.783 14.063,-12.188L14.063,-7.939L9.834,-7.939C9.219,-7.939 8.809,-7.598 8.809,-7.021C8.809,-6.465 9.238,-6.133 9.834,-6.133L14.063,-6.133L14.063,-2.061C14.063,-1.475 14.385,-1.064 14.951,-1.064Z" style="fill-rule:nonzero;"/>
        </g>
        <g transform="matrix(1,0,0,1,263,1953)">
            <text x="0px" y="0px" style="font-family:'SFProDisplay-Bold', 'SF Pro Display';font-weight:700;font-size:16px;">Design V<tspan x="63.789px " y="0px ">a</tspan>riations</text>
        </g>
        <g transform="matrix(1,0,0,1,263,1971)">
            <text x="0px" y="0px" style="font-family:'SFProDisplay-Regular', 'SF Pro Display';font-size:16px;">Symbols ar<tspan x="74.047px " y="0px ">e</tspan> suppor<tspan x="132.711px 137.297px " y="0px 0px ">te</tspan>d in up t<tspan x="197.695px " y="0px ">o</tspan> nine weights and thr<tspan x="343.523px " y="0px ">e</tspan>e scales.</text>
        </g>
        <g transform="matrix(1,0,0,1,263,1989)">
            <text x="0px" y="0px" style="font-family:'SFProDisplay-Regular', 'SF Pro Display';font-size:16px;">F<tspan x="8.133px " y="0px ">o</tspan>r optimal lay<tspan x="96.477px " y="0px ">o</tspan>ut with t<tspan x="157.523px 165.563px " y="0px 0px ">ex</tspan>t and other symbols,<tspan x="307.547px 310.828px 318.32px 326.516px 331.758px " y="0px 0px 0px 0px 0px "> vert</tspan>ically align</text>
        </g>
        <g transform="matrix(1,0,0,1,263,2007)">
            <text x="0px" y="0px" style="font-family:'SFProDisplay-Regular', 'SF Pro Display';font-size:16px;">symbols with the adjacent t<tspan x="181.305px 189.344px " y="0px 0px ">ex</tspan>t.</text>
        </g>
        <rect x="776" y="1919" width="3" height="14" style="fill:rgb(0,174,239);fill-opacity:0.4;"/>
        <g transform="matrix(1,0,0,1,779,1933)">
            <path d="M10.527,0L12.373,0L7.178,-14.092L5.439,-14.092L0.244,0L2.09,0L3.506,-4.033L9.111,-4.033L10.527,0ZM6.279,-11.953L6.338,-11.953L8.594,-5.527L4.023,-5.527L6.279,-11.953Z" style="fill-rule:nonzero;"/>
        </g>
        <rect x="791.617" y="1919" width="3" height="14" style="fill:rgb(0,174,239);fill-opacity:0.4;"/>
        <g transform="matrix(1,0,0,1,776,1953)">
            <text x="0px" y="0px" style="font-family:'SFProDisplay-Bold', 'SF Pro Display';font-weight:700;font-size:16px;">M<tspan x="13.641px 22.398px 27.945px " y="0px 0px 0px ">arg</tspan>ins</text>
        </g>
        <g transform="matrix(1,0,0,1,776,1971)">
            <text x="0px" y="0px" style="font-family:'SFProDisplay-Regular', 'SF Pro Display';font-size:16px;">L<tspan x="8.156px " y="0px ">e</tspan>ading and tr<tspan x="95.203px " y="0px ">a</tspan>iling mar<tspan x="158.953px " y="0px ">g</tspan>ins on the left and right side of each symbol</text>
        </g>
        <g transform="matrix(1,0,0,1,776,1989)">
            <text x="0px" y="0px" style="font-family:'SFProDisplay-Regular', 'SF Pro Display';font-size:16px;">can be adjust<tspan x="88.719px " y="0px ">e</tspan>d b<tspan x="117.688px " y="0px ">y</tspan> modifying the width of the blue r<tspan x="341.977px " y="0px ">e</tspan>ct<tspan x="362.852px " y="0px ">a</tspan>ngles.</text>
        </g>
        <g transform="matrix(1,0,0,1,776,2007)">
            <text x="0px" y="0px" style="font-family:'SFProDisplay-Regular', 'SF Pro Display';font-size:16px;">Modifications ar<tspan x="106.391px " y="0px ">e</tspan> aut<tspan x="138.914px " y="0px ">o</tspan>matically applied pr<tspan x="275.82px " y="0px ">o</tspan>por<tspan x="306.836px " y="0px ">t</tspan>ionally t<tspan x="362.055px " y="0px ">o</tspan> all</text>
        </g>
        <g transform="matrix(1,0,0,1,776,2025)">
            <text x="0px" y="0px" style="font-family:'SFProDisplay-Regular', 'SF Pro Display';font-size:16px;">scales and weights.</text>
        </g>
        <g transform="matrix(1,0,0,1,1289,1933)">
            <path d="M2.832,3.115L4.375,4.658C5.225,5.488 6.191,5.42 7.061,4.463L17.275,-6.66C17.705,-6.367 18.096,-6.377 18.565,-6.475L19.609,-6.689L20.303,-5.996L20.254,-5.479C20.186,-4.951 20.352,-4.531 20.85,-4.033L21.66,-3.223C22.168,-2.715 22.822,-2.686 23.301,-3.164L26.553,-6.416C27.031,-6.895 27.012,-7.549 26.504,-8.057L25.684,-8.877C25.186,-9.375 24.775,-9.551 24.238,-9.473L23.711,-9.414L23.057,-10.078L23.34,-11.221C23.486,-11.787 23.34,-12.256 22.715,-12.861L20.303,-15.254C16.758,-18.779 12.227,-18.672 9.111,-15.537C8.691,-15.107 8.643,-14.522 8.916,-14.092C9.15,-13.721 9.629,-13.496 10.273,-13.662C11.787,-14.043 13.301,-13.926 14.785,-12.92L14.16,-11.338C13.926,-10.752 13.945,-10.273 14.18,-9.834L3.018,0.439C2.08,1.309 1.973,2.256 2.832,3.115ZM10.674,-15.147C13.34,-17.139 16.65,-16.826 19.053,-14.414L21.68,-11.807C21.914,-11.572 21.943,-11.387 21.885,-11.094L21.504,-9.531L23.076,-7.959L24.043,-8.047C24.326,-8.076 24.414,-8.057 24.639,-7.832L25.264,-7.207L22.51,-4.463L21.885,-5.078C21.66,-5.303 21.641,-5.4 21.67,-5.684L21.758,-6.641L20.195,-8.203L18.574,-7.891C18.291,-7.832 18.145,-7.832 17.91,-8.076L15.732,-10.254C15.508,-10.488 15.479,-10.625 15.605,-10.947L16.553,-13.223C14.951,-14.756 12.842,-15.605 10.801,-14.951C10.713,-14.922 10.645,-14.941 10.615,-14.98C10.586,-15.029 10.586,-15.078 10.674,-15.147ZM4.102,2.412C3.613,1.914 3.789,1.611 4.121,1.309L15.078,-8.809L16.309,-7.578L6.152,3.35C5.85,3.682 5.469,3.779 5.068,3.379L4.102,2.412Z" style="fill-rule:nonzero;"/>
        </g>
        <g transform="matrix(1,0,0,1,1289,1953)">
            <text x="0px" y="0px" style="font-family:'SFProDisplay-Bold', 'SF Pro Display';font-weight:700;font-size:16px;">Expor<tspan x="42.367px " y="0px ">t</tspan>ing</text>
        </g>
        <g transform="matrix(1,0,0,1,1289,1971)">
            <text x="0px" y="0px" style="font-family:'SFProDisplay-Regular', 'SF Pro Display';font-size:16px;">Symbols should be outlined when e<tspan x="235.273px " y="0px ">x</tspan>por<tspan x="265.305px " y="0px ">t</tspan>ing t<tspan x="298.477px " y="0px ">o</tspan> ensur<tspan x="347.289px " y="0px ">e</tspan> the</text>
        </g>
        <g transform="matrix(1,0,0,1,1289,1989)">
            <text x="0px" y="0px" style="font-family:'SFProDisplay-Regular', 'SF Pro Display';font-size:16px;">design is pr<tspan x="75.586px " y="0px ">e</tspan>serv<tspan x="111.844px " y="0px ">e</tspan>d when submitting t<tspan x="251.008px " y="0px ">o</tspan> X<tspan x="272.391px " y="0px ">c</tspan>ode.</text>
        </g>
        <g id="template-version" transform="matrix(1,0,0,1,3036,1933)">
            <text x="-94.531px" y="0px" style="font-family:'SFProDisplay-Regular', 'SF Pro Display';font-size:16px;">T<tspan x="-87.344px " y="0px ">e</tspan>mplat<tspan x="-41.625px " y="0px ">e</tspan> v<tspan x="-23.594px -20.469px -13.766px " y="0px 0px 0px ">.1.</tspan>0</text>
        </g>
        <g transform="matrix(1,0,0,1,3036,1951)">
            <text x="-164.07px" y="0px" style="font-family:'SFProDisplay-Regular', 'SF Pro Display';font-size:16px;">Gener<tspan x="-123.172px -115.141px -110.555px " y="0px 0px 0px ">ate</tspan>d fr<tspan x="-80.82px " y="0px ">o</tspan>m 1<tspan x="-49.492px " y="0px ">.</tspan>squar<tspan x="-8.195px " y="0px ">e</tspan></text>
        </g>
        <g transform="matrix(1,0,0,1,3036,1969)">
            <text x="-143.086px" y="0px" style="font-family:'SFProDisplay-Regular', 'SF Pro Display';font-size:16px;">T<tspan x="-135.664px " y="0px ">y</tspan>peset at 100 points</text>
        </g>
        <g transform="matrix(1,0,0,1,263,726)">
            <text x="0px" y="0px" style="font-family:'SFProDisplay-Regular', 'SF Pro Display';font-size:16px;">Small</text>
        </g>
        <g transform="matrix(1,0,0,1,263,1156)">
            <text x="0px" y="0px" style="font-family:'SFProDisplay-Regular', 'SF Pro Display';font-size:16px;">Medium</text>
        </g>
        <g transform="matrix(1,0,0,1,263,1586)">
            <text x="0px" y="0px" style="font-family:'SFProDisplay-Regular', 'SF Pro Display';font-size:16px;">Lar<tspan x="20.961px " y="0px ">g</tspan>e</text>
        </g>
    </g>
    <g id="Guides">
        <g id="H-reference" transform="matrix(1,0,0,1,339,696)">
            <path d="M54.932,0L57.666,0L30.566,-70.459L28.076,-70.459L0.977,0L3.662,0L12.94,-24.463L45.703,-24.463L54.932,0ZM29.199,-67.09L29.443,-67.09L44.824,-26.709L13.818,-26.709L29.199,-67.09Z" style="fill:rgb(39,170,225);fill-rule:nonzero;"/>
        </g>
        <path id="Baseline-S" d="M263,696L3036,696" style="fill:none;fill-rule:nonzero;stroke:rgb(39,170,225);stroke-width:0.58px;"/>
        <path id="Capline-S" d="M263,625.541L3036,625.541" style="fill:none;fill-rule:nonzero;stroke:rgb(39,170,225);stroke-width:0.58px;"/>
        <g id="H-reference1" serif:id="H-reference" transform="matrix(1,0,0,1,339,1126)">
            <path d="M54.932,0L57.666,0L30.566,-70.459L28.076,-70.459L0.977,0L3.662,0L12.94,-24.463L45.703,-24.463L54.932,0ZM29.199,-67.09L29.443,-67.09L44.824,-26.709L13.818,-26.709L29.199,-67.09Z" style="fill:rgb(39,170,225);fill-rule:nonzero;"/>
        </g>
        <path id="Baseline-M" d="M263,1126L3036,1126" style="fill:none;fill-rule:nonzero;stroke:rgb(39,170,225);stroke-width:0.58px;"/>
        <path id="Capline-M" d="M263,1055.54L3036,1055.54" style="fill:none;fill-rule:nonzero;stroke:rgb(39,170,225);stroke-width:0.58px;"/>
        <g id="H-reference2" serif:id="H-reference" transform="matrix(1,0,0,1,339,1556)">
            <path d="M54.932,0L57.666,0L30.566,-70.459L28.076,-70.459L0.977,0L3.662,0L12.94,-24.463L45.703,-24.463L54.932,0ZM29.199,-67.09L29.443,-67.09L44.824,-26.709L13.818,-26.709L29.199,-67.09Z" style="fill:rgb(39,170,225);fill-rule:nonzero;"/>
        </g>
        <path id="Baseline-L" d="M263,1556L3036,1556" style="fill:none;fill-rule:nonzero;stroke:rgb(39,170,225);stroke-width:0.58px;"/>
        <path id="Capline-L" d="M263,1485.54L3036,1485.54" style="fill:none;fill-rule:nonzero;stroke:rgb(39,170,225);stroke-width:0.58px;"/>
        <rect id="left-margin" x="1392.45" y="1030.79" width="12.451" height="119.336" style="fill:rgb(0,174,239);fill-opacity:0.4;"/>
        <rect id="right-margin" x="1494.79" y="1030.79" width="12.451" height="119.336" style="fill:rgb(0,174,239);fill-opacity:0.4;"/>
    </g>
    <g id="Symbols">
        <g id="Black-L" transform="matrix(1,0,0,1,2855.62,1556)">
            <path d="M82.178,-6.592C87.891,-6.592 91.748,-9.668 91.748,-16.553L91.748,-53.955C91.748,-59.912 87.305,-63.965 80.811,-63.965C76.758,-63.965 73.486,-62.891 69.238,-60.107L59.863,-53.955C57.129,-52.197 55.859,-50.244 55.859,-47.266C55.859,-43.603 58.447,-40.772 62.06,-40.772C63.672,-40.772 64.648,-40.967 66.797,-42.432L72.022,-45.898L72.607,-45.898L72.607,-16.553C72.607,-9.668 76.416,-6.592 82.178,-6.592Z" style="fill-rule:nonzero;"/>
        </g>
        <g id="Heavy-L" transform="matrix(1,0,0,1,2559.93,1556)">
            <path d="M80.859,-6.641C85.889,-6.641 89.209,-9.424 89.209,-15.381L89.209,-55.176C89.209,-60.449 85.352,-63.965 79.736,-63.965C76.172,-63.965 73.34,-62.988 69.531,-60.498L59.57,-53.906C57.227,-52.393 56.103,-50.684 56.103,-48.096C56.103,-44.922 58.398,-42.334 61.621,-42.334C63.037,-42.334 63.916,-42.529 65.82,-43.848L71.973,-47.9L72.559,-47.9L72.559,-15.381C72.559,-9.424 75.83,-6.641 80.859,-6.641Z" style="fill-rule:nonzero;"/>
        </g>
        <g id="Bold-L" transform="matrix(1,0,0,1,2264.37,1556)">
            <path d="M79.346,-6.641C83.594,-6.641 86.328,-9.082 86.328,-14.063L86.328,-56.543C86.328,-61.035 83.252,-63.965 78.565,-63.965C75.488,-63.965 73.144,-63.135 69.873,-60.986L59.277,-53.906C57.324,-52.588 56.397,-51.221 56.397,-49.023C56.397,-46.338 58.398,-44.141 61.084,-44.141C62.305,-44.141 63.086,-44.287 64.746,-45.41L71.924,-50.147L72.461,-50.147L72.461,-14.063C72.461,-9.082 75.147,-6.641 79.346,-6.641Z" style="fill-rule:nonzero;"/>
        </g>
        <g id="Semibold-L" transform="matrix(1,0,0,1,1968.44,1556)">
            <path d="M78.32,-6.689C82.031,-6.689 84.375,-8.887 84.375,-13.135L84.375,-57.471C84.375,-61.475 81.738,-63.965 77.734,-63.965C75.049,-63.965 73.047,-63.232 70.117,-61.279L59.082,-53.906C57.373,-52.783 56.641,-51.563 56.641,-49.658C56.641,-47.315 58.398,-45.361 60.742,-45.361C61.816,-45.361 62.5,-45.508 64.014,-46.533L71.924,-51.709L72.412,-51.709L72.412,-13.135C72.412,-8.887 74.707,-6.689 78.32,-6.689Z" style="fill-rule:nonzero;"/>
        </g>
        <g id="Medium-L" transform="matrix(1,0,0,1,1672.31,1556)">
            <path d="M77.539,-6.689C80.859,-6.689 82.861,-8.74 82.861,-12.451L82.861,-58.203C82.861,-61.768 80.615,-63.965 77.1,-63.965C74.707,-63.965 72.949,-63.33 70.264,-61.523L58.935,-53.906C57.422,-52.881 56.787,-51.807 56.787,-50.147C56.787,-48.096 58.35,-46.289 60.449,-46.289C61.426,-46.289 62.06,-46.436 63.428,-47.363L71.875,-52.881L72.363,-52.881L72.363,-12.451C72.363,-8.74 74.365,-6.689 77.539,-6.689Z" style="fill-rule:nonzero;"/>
        </g>
        <g id="Regular-L" transform="matrix(1,0,0,1,1376.38,1556)">
            <path d="M76.563,-6.738C79.297,-6.738 80.908,-8.545 80.908,-11.523L80.908,-59.082C80.908,-62.207 79.15,-63.965 76.269,-63.965C74.268,-63.965 72.852,-63.428 70.508,-61.816L58.691,-53.906C57.471,-53.027 56.982,-52.148 56.982,-50.781C56.982,-49.072 58.35,-47.51 60.107,-47.51C60.938,-47.51 61.523,-47.607 62.695,-48.438L71.875,-54.443L72.266,-54.443L72.266,-11.523C72.266,-8.545 73.877,-6.738 76.563,-6.738Z" style="fill-rule:nonzero;"/>
        </g>
        <g id="Light-L" transform="matrix(1,0,0,1,1080.5,1556)">
            <path d="M75.488,-6.885C77.637,-6.885 78.857,-8.301 78.857,-10.498L78.857,-60.156C78.857,-62.549 77.441,-63.916 75.195,-63.916C73.633,-63.916 72.51,-63.477 70.654,-62.207L58.203,-53.955C57.178,-53.272 56.787,-52.539 56.787,-51.465C56.787,-50.049 57.91,-48.779 59.326,-48.779C59.961,-48.779 60.449,-48.877 61.279,-49.463L71.826,-56.299L72.168,-56.299L72.168,-10.498C72.168,-8.301 73.486,-6.885 75.488,-6.885Z" style="fill-rule:nonzero;"/>
        </g>
        <g id="Thin-L" transform="matrix(1,0,0,1,784.889,1556)">
            <path d="M74.072,-7.08C75.391,-7.08 76.123,-7.959 76.123,-9.18L76.123,-61.572C76.123,-62.988 75.147,-63.818 73.779,-63.818C72.803,-63.818 72.07,-63.574 70.85,-62.695L57.52,-54.053C56.787,-53.613 56.494,-53.076 56.494,-52.344C56.494,-51.318 57.324,-50.488 58.301,-50.488C58.691,-50.488 58.984,-50.586 59.375,-50.83L71.729,-58.838L72.07,-58.838L72.07,-9.18C72.07,-7.959 72.9,-7.08 74.072,-7.08Z" style="fill-rule:nonzero;"/>
        </g>
        <g id="Ultralight-L" transform="matrix(1,0,0,1,488.739,1556)">
            <path d="M73.389,-7.178C74.219,-7.178 74.756,-7.764 74.756,-8.496L74.756,-62.305C74.756,-63.184 73.975,-63.818 73.047,-63.818C72.412,-63.818 71.826,-63.574 70.947,-62.988L57.129,-54.102C56.592,-53.76 56.348,-53.32 56.348,-52.783C56.348,-52.002 57.031,-51.367 57.813,-51.367C58.057,-51.367 58.252,-51.465 58.398,-51.514L71.68,-60.107L72.022,-60.107L72.022,-8.496C72.022,-7.764 72.607,-7.178 73.389,-7.178Z" style="fill-rule:nonzero;"/>
        </g>
        <g id="Black-M" transform="matrix(1,0,0,1,2872.19,1126)">
            <path d="M64.893,-13.086C69.922,-13.086 73.486,-15.625 73.486,-21.826L73.486,-48.682C73.486,-53.809 69.287,-57.422 63.525,-57.422C59.912,-57.422 56.934,-56.494 53.32,-54.199L46.484,-49.805C44.043,-48.193 42.822,-46.436 42.822,-43.799C42.822,-40.527 45.068,-38.086 48.291,-38.086C49.707,-38.086 50.488,-38.281 52.344,-39.453L55.811,-41.797L56.348,-41.797L56.348,-21.826C56.348,-15.625 59.815,-13.086 64.893,-13.086Z" style="fill-rule:nonzero;"/>
        </g>
        <g id="Heavy-M" transform="matrix(1,0,0,1,2576.39,1126)">
            <path d="M63.721,-13.086C68.164,-13.086 71.191,-15.43 71.191,-20.801L71.191,-49.756C71.191,-54.297 67.676,-57.471 62.598,-57.471C59.424,-57.471 56.885,-56.641 53.613,-54.541L46.338,-49.756C44.19,-48.389 43.164,-46.826 43.164,-44.531C43.164,-41.65 45.166,-39.453 47.998,-39.453C49.219,-39.453 50,-39.648 51.611,-40.723L55.811,-43.506L56.25,-43.506L56.25,-20.801C56.25,-15.43 59.277,-13.086 63.721,-13.086Z" style="fill-rule:nonzero;"/>
        </g>
        <g id="Bold-M" transform="matrix(1,0,0,1,2280.68,1126)">
            <path d="M62.402,-13.086C66.211,-13.086 68.652,-15.185 68.652,-19.629L68.652,-50.928C68.652,-54.883 65.82,-57.471 61.621,-57.471C58.935,-57.471 56.787,-56.787 53.955,-54.883L46.143,-49.707C44.385,-48.535 43.555,-47.266 43.555,-45.361C43.555,-42.969 45.264,-41.016 47.656,-41.016C48.731,-41.016 49.414,-41.162 50.879,-42.139L55.762,-45.41L56.201,-45.41L56.201,-19.629C56.201,-15.185 58.643,-13.086 62.402,-13.086Z" style="fill-rule:nonzero;"/>
        </g>
        <g id="Semibold-M" transform="matrix(1,0,0,1,1984.65,1126)">
            <path d="M61.523,-13.086C64.844,-13.086 66.943,-14.99 66.943,-18.848L66.943,-51.709C66.943,-55.273 64.551,-57.52 60.938,-57.52C58.545,-57.52 56.738,-56.885 54.15,-55.176L45.996,-49.707C44.482,-48.682 43.799,-47.607 43.799,-45.898C43.799,-43.848 45.361,-42.09 47.461,-42.09C48.389,-42.09 49.023,-42.236 50.342,-43.164L55.762,-46.728L56.152,-46.728L56.152,-18.848C56.152,-14.99 58.252,-13.086 61.523,-13.086Z" style="fill-rule:nonzero;"/>
        </g>
        <g id="Medium-M" transform="matrix(1,0,0,1,1688.47,1126)">
            <path d="M60.84,-13.037C63.77,-13.037 65.576,-14.844 65.576,-18.213L65.576,-52.344C65.576,-55.566 63.623,-57.52 60.4,-57.52C58.301,-57.52 56.69,-56.934 54.346,-55.371L45.898,-49.658C44.58,-48.779 43.994,-47.852 43.994,-46.338C43.994,-44.531 45.41,-42.92 47.266,-42.92C48.096,-42.92 48.682,-43.066 49.951,-43.897L55.762,-47.754L56.103,-47.754L56.103,-18.213C56.103,-14.844 57.91,-13.037 60.84,-13.037Z" style="fill-rule:nonzero;"/>
        </g>
        <g id="Regular-M" transform="matrix(1,0,0,1,1392.45,1126)">
            <path d="M59.912,-13.037C62.451,-13.037 63.867,-14.697 63.867,-17.432L63.867,-53.125C63.867,-55.957 62.353,-57.52 59.717,-57.52C57.91,-57.52 56.641,-57.031 54.59,-55.615L45.801,-49.658C44.727,-48.877 44.287,-48.145 44.287,-46.924C44.287,-45.41 45.459,-43.994 47.022,-43.994C47.754,-43.994 48.291,-44.092 49.414,-44.873L55.713,-49.023L56.055,-49.023L56.055,-17.432C56.055,-14.697 57.52,-13.037 59.912,-13.037Z" style="fill-rule:nonzero;"/>
        </g>
        <g id="Light-M" transform="matrix(1,0,0,1,1096.47,1126)">
            <path d="M58.984,-13.184C60.889,-13.184 62.012,-14.453 62.012,-16.553L62.012,-54.102C62.012,-56.25 60.791,-57.471 58.74,-57.471C57.373,-57.471 56.348,-57.08 54.688,-55.957L45.313,-49.707C44.434,-49.121 44.092,-48.486 44.092,-47.51C44.092,-46.289 45.068,-45.166 46.338,-45.166C46.924,-45.166 47.315,-45.264 48.145,-45.801L55.664,-50.732L56.006,-50.732L56.006,-16.553C56.006,-14.453 57.129,-13.184 58.984,-13.184Z" style="fill-rule:nonzero;"/>
        </g>
        <g id="Thin-M" transform="matrix(1,0,0,1,800.758,1126)">
            <path d="M57.715,-13.379C58.887,-13.379 59.57,-14.16 59.57,-15.332L59.57,-55.371C59.57,-56.641 58.74,-57.422 57.471,-57.422C56.592,-57.422 55.957,-57.178 54.883,-56.445L44.727,-49.805C44.092,-49.414 43.848,-48.926 43.848,-48.291C43.848,-47.412 44.531,-46.68 45.41,-46.68C45.752,-46.68 46.045,-46.777 46.436,-47.022L55.615,-52.978L55.859,-52.978L55.859,-15.332C55.859,-14.16 56.641,-13.379 57.715,-13.379Z" style="fill-rule:nonzero;"/>
        </g>
        <g id="Ultralight-M" transform="matrix(1,0,0,1,504.535,1126)">
            <path d="M57.08,-13.477C57.861,-13.477 58.35,-14.014 58.35,-14.697L58.35,-56.006C58.35,-56.836 57.666,-57.373 56.836,-57.373C56.25,-57.373 55.762,-57.178 54.981,-56.641L44.385,-49.853C43.897,-49.561 43.75,-49.17 43.75,-48.682C43.75,-48.047 44.287,-47.461 44.922,-47.461C45.166,-47.461 45.361,-47.559 45.557,-47.656L55.566,-54.102L55.811,-54.102L55.811,-14.697C55.811,-14.014 56.348,-13.477 57.08,-13.477Z" style="fill-rule:nonzero;"/>
        </g>
        <g id="Black-S" transform="matrix(1,0,0,1,2885.5,696)">
            <path d="M50.781,-17.871C54.688,-17.871 57.422,-19.873 57.422,-24.658L57.422,-45.85C57.422,-49.805 54.199,-52.637 49.707,-52.637C46.924,-52.637 44.629,-51.904 41.797,-50.098L36.426,-46.631C34.522,-45.41 33.594,-44.043 33.594,-41.992C33.594,-39.453 35.352,-37.549 37.842,-37.549C38.916,-37.549 39.551,-37.695 40.967,-38.623L43.75,-40.478L44.141,-40.478L44.141,-24.658C44.141,-19.873 46.826,-17.871 50.781,-17.871Z" style="fill-rule:nonzero;"/>
        </g>
        <g id="Heavy-S" transform="matrix(1,0,0,1,2589.4,696)">
            <path d="M50,-17.871C53.516,-17.871 55.908,-19.727 55.908,-23.975L55.908,-46.533C55.908,-50.147 53.125,-52.637 49.121,-52.637C46.631,-52.637 44.629,-52.002 41.992,-50.342L36.328,-46.582C34.668,-45.508 33.887,-44.287 33.887,-42.481C33.887,-40.234 35.449,-38.477 37.695,-38.477C38.672,-38.477 39.258,-38.623 40.576,-39.502L43.75,-41.602L44.092,-41.602L44.092,-23.975C44.092,-19.727 46.436,-17.871 50,-17.871Z" style="fill-rule:nonzero;"/>
        </g>
        <g id="Bold-S" transform="matrix(1,0,0,1,2293.35,696)">
            <path d="M49.121,-17.822C52.197,-17.822 54.199,-19.58 54.199,-23.193L54.199,-47.315C54.199,-50.537 51.904,-52.686 48.486,-52.686C46.289,-52.686 44.58,-52.1 42.236,-50.586L36.279,-46.582C34.863,-45.606 34.18,-44.629 34.18,-43.018C34.18,-41.113 35.596,-39.551 37.5,-39.551C38.379,-39.551 38.916,-39.648 40.137,-40.478L43.701,-42.871L44.043,-42.871L44.043,-23.193C44.043,-19.58 46.045,-17.822 49.121,-17.822Z" style="fill-rule:nonzero;"/>
        </g>
        <g id="Semibold-S" transform="matrix(1,0,0,1,1997.1,696)">
            <path d="M48.486,-17.822C51.27,-17.822 52.978,-19.434 52.978,-22.656L52.978,-47.852C52.978,-50.83 51.074,-52.686 48.047,-52.686C46.045,-52.686 44.58,-52.197 42.432,-50.732L36.231,-46.533C34.961,-45.703 34.424,-44.824 34.424,-43.408C34.424,-41.699 35.693,-40.283 37.402,-40.283C38.184,-40.283 38.721,-40.381 39.844,-41.162L43.701,-43.701L44.043,-43.701L44.043,-22.656C44.043,-19.434 45.752,-17.822 48.486,-17.822Z" style="fill-rule:nonzero;"/>
        </g>
        <g id="Medium-S" transform="matrix(1,0,0,1,1700.75,696)">
            <path d="M47.998,-17.822C50.586,-17.822 52.1,-19.385 52.1,-22.266L52.1,-48.242C52.1,-51.025 50.44,-52.734 47.705,-52.734C45.898,-52.734 44.531,-52.246 42.529,-50.879L36.182,-46.533C35.059,-45.752 34.57,-44.971 34.57,-43.701C34.57,-42.188 35.742,-40.82 37.305,-40.82C38.037,-40.82 38.525,-40.918 39.648,-41.65L43.701,-44.385L43.994,-44.385L43.994,-22.266C43.994,-19.385 45.557,-17.822 47.998,-17.822Z" style="fill-rule:nonzero;"/>
        </g>
        <g id="Regular-S" transform="matrix(1,0,0,1,1404.51,696)">
            <path d="M47.412,-17.773C49.658,-17.773 50.928,-19.238 50.928,-21.729L50.928,-48.779C50.928,-51.318 49.609,-52.734 47.266,-52.734C45.654,-52.734 44.531,-52.295 42.676,-51.025L36.133,-46.484C35.156,-45.85 34.766,-45.166 34.766,-44.092C34.766,-42.773 35.84,-41.553 37.207,-41.553C37.842,-41.553 38.33,-41.65 39.356,-42.334L43.701,-45.215L43.994,-45.215L43.994,-21.729C43.994,-19.238 45.264,-17.773 47.412,-17.773Z" style="fill-rule:nonzero;"/>
        </g>
        <g id="Light-S" transform="matrix(1,0,0,1,1108.46,696)">
            <path d="M46.582,-17.92C48.34,-17.92 49.316,-19.043 49.316,-20.947L49.316,-49.609C49.316,-51.563 48.242,-52.686 46.436,-52.686C45.166,-52.686 44.287,-52.344 42.822,-51.318L35.693,-46.533C34.912,-46.045 34.619,-45.459 34.619,-44.629C34.619,-43.555 35.498,-42.578 36.572,-42.578C37.109,-42.578 37.451,-42.627 38.184,-43.164L43.652,-46.728L43.897,-46.728L43.897,-20.947C43.897,-19.043 44.922,-17.92 46.582,-17.92Z" style="fill-rule:nonzero;"/>
        </g>
        <g id="Thin-S" transform="matrix(1,0,0,1,812.599,696)">
            <path d="M45.459,-18.066C46.533,-18.066 47.168,-18.799 47.168,-19.873L47.168,-50.732C47.168,-51.904 46.436,-52.637 45.313,-52.637C44.531,-52.637 43.945,-52.393 42.969,-51.758L35.156,-46.631C34.619,-46.289 34.424,-45.898 34.424,-45.313C34.424,-44.58 35.01,-43.897 35.791,-43.897C36.084,-43.897 36.328,-43.994 36.719,-44.238L43.603,-48.682L43.799,-48.682L43.799,-19.873C43.799,-18.799 44.482,-18.066 45.459,-18.066Z" style="fill-rule:nonzero;"/>
        </g>
        <g id="Ultralight-S" transform="matrix(1,0,0,1,516.352,696)">
            <path d="M44.922,-18.164C45.606,-18.164 46.045,-18.652 46.045,-19.336L46.045,-51.318C46.045,-52.1 45.459,-52.588 44.727,-52.588C44.19,-52.588 43.75,-52.441 43.066,-51.953L34.863,-46.68C34.473,-46.387 34.326,-46.094 34.326,-45.654C34.326,-45.117 34.766,-44.629 35.352,-44.629C35.547,-44.629 35.742,-44.678 35.938,-44.775L43.555,-49.707L43.75,-49.707L43.75,-19.336C43.75,-18.652 44.238,-18.164 44.922,-18.164Z" style="fill-rule:nonzero;"/>
        </g>
    </g>
</svg>
